# xmcd
#
# Track frame offsets: 
#        150
#        13870
#        26127
#        39505
#        53492
#        65468
#        80505
#        89823
#        103358
#        116302
#        130750
#        145151
#        155924
#        169702
#        183131
#        195934
#        209617
#        220360
#        233668
#        247742
#
# Disc length: 3451 seconds
#
# Revision: 1
# Processed by: cddbd v1.5PL3 Copyright (c) Steve Scherf et al.
# Submitted via: ExactAudioCopy v0.95a4
#
DISCID=160d7914
DTITLE=Peggy Lee - 5 CD Box [CD2]
DYEAR=1900
DGENRE=Vocal
TTITLE0=Ain't Goin' No Place
TTITLE1=That Old Feeling
TTITLE2=Baby  (Is What He Calls Me)
TTITLE3=Waiting For The Train To Come In
TTITLE4=I'm Glad I Waited For You
TTITLE5=I Don't Know Enough About You
TTITLE6=Somebody Loves Me
TTITLE7=It's All Over Now
TTITLE8=You Can Depend On Me
TTITLE9=A Nightinagle Can Sing The Blues
TTITLE10=The Freedom Train
TTITLE11=When Irish Eyes Are Smilling
TTITLE12=Linger In My Arms A Little Longer, Baby
TTITLE13=Everything's Moving Too Fast
TTITLE14=It's A Good Day
TTITLE15=Chi-Baba, Chi-Baba (My Bambino Go To Sleep)
TTITLE16=Swing Low Sweet Chariot
TTITLE17=Somebody Loves Me
TTITLE18=There'll Be Some Changes Made
TTITLE19=Sugar
EXTD=
EXTT0=
EXTT1=
EXTT2=
EXTT3=
EXTT4=
EXTT5=
EXTT6=
EXTT7=
EXTT8=
EXTT9=
EXTT10=
EXTT11=
EXTT12=
EXTT13=
EXTT14=
EXTT15=
EXTT16=
EXTT17=
EXTT18=
EXTT19=
PLAYORDER=
